<svg xmlns="http://www.w3.org/2000/svg" xmlns:xlink="http://www.w3.org/1999/xlink" width="40" zoomAndPan="magnify" viewBox="0 0 30 30.000001" height="40" preserveAspectRatio="xMidYMid meet" version="1.0"><defs><clipPath id="64dacc0bf1"><path d="M 0.484375 0 L 29.515625 0 L 29.515625 29.03125 L 0.484375 29.03125 Z M 0.484375 0 " clip-rule="nonzero"/></clipPath></defs><g clip-path="url(#64dacc0bf1)"><path fill="#1e313b" d="M 15 27.984375 C 7.574219 27.984375 1.535156 21.941406 1.535156 14.515625 C 1.535156 7.089844 7.574219 1.050781 15 1.050781 C 22.425781 1.050781 28.464844 7.089844 28.464844 14.515625 C 28.464844 21.941406 22.425781 27.984375 15 27.984375 Z M 15 0 C 6.996094 0 0.484375 6.511719 0.484375 14.515625 C 0.484375 22.519531 6.996094 29.03125 15 29.03125 C 23.003906 29.03125 29.515625 22.519531 29.515625 14.515625 C 29.515625 6.511719 23.003906 0 15 0 " fill-opacity="1" fill-rule="nonzero"/></g><path fill="#1e313b" d="M 20.839844 14.335938 L 15 19.246094 L 9.160156 14.335938 C 8.9375 14.148438 8.605469 14.179688 8.417969 14.402344 C 8.234375 14.621094 8.261719 14.953125 8.484375 15.140625 L 14.664062 20.335938 C 14.761719 20.417969 14.878906 20.457031 15 20.457031 C 15.121094 20.457031 15.238281 20.417969 15.335938 20.335938 L 21.515625 15.140625 C 21.738281 14.953125 21.765625 14.621094 21.582031 14.402344 C 21.394531 14.179688 21.0625 14.148438 20.839844 14.335938 " fill-opacity="1" fill-rule="nonzero"/><path fill="#1e313b" d="M 20.839844 9.933594 L 15 14.84375 L 9.160156 9.933594 C 8.9375 9.75 8.605469 9.777344 8.417969 10 C 8.234375 10.222656 8.261719 10.550781 8.484375 10.738281 L 14.664062 15.933594 C 14.761719 16.015625 14.878906 16.054688 15 16.054688 C 15.121094 16.054688 15.238281 16.015625 15.335938 15.933594 L 21.515625 10.738281 C 21.738281 10.550781 21.765625 10.222656 21.582031 10 C 21.394531 9.777344 21.0625 9.75 20.839844 9.933594 " fill-opacity="1" fill-rule="nonzero"/></svg>